<svg xmlns="http://www.w3.org/2000/svg" xmlns:xlink="http://www.w3.org/1999/xlink" width="500" zoomAndPan="magnify" viewBox="0 0 375 374.999991" height="500" preserveAspectRatio="xMidYMid meet" version="1.0"><defs><g/><clipPath id="2d2662a92c"><path d="M 51 0 L 323.859375 0 L 323.859375 375 L 51 375 Z M 51 0 " clip-rule="nonzero"/></clipPath><clipPath id="e30d75b7c7"><path d="M 229 0 L 323.859375 0 L 323.859375 95 L 229 95 Z M 229 0 " clip-rule="nonzero"/></clipPath><clipPath id="2d3fecb16b"><path d="M 50.859375 137 L 323.859375 137 L 323.859375 282 L 50.859375 282 Z M 50.859375 137 " clip-rule="nonzero"/></clipPath></defs><g fill="#000000" fill-opacity="1"><g transform="translate(254.079833, 76.249998)"><g><path d="M 5.515625 0.171875 C 4.816406 0.171875 4.203125 0.03125 3.671875 -0.25 C 3.148438 -0.53125 2.75 -0.914062 2.46875 -1.40625 C 2.1875 -1.90625 2.046875 -2.46875 2.046875 -3.09375 C 2.046875 -3.71875 2.1875 -4.273438 2.46875 -4.765625 C 2.75 -5.265625 3.148438 -5.65625 3.671875 -5.9375 C 4.203125 -6.226562 4.816406 -6.375 5.515625 -6.375 C 6.210938 -6.375 6.820312 -6.234375 7.34375 -5.953125 C 7.875 -5.671875 8.28125 -5.28125 8.5625 -4.78125 C 8.84375 -4.289062 8.984375 -3.734375 8.984375 -3.109375 C 8.984375 -2.160156 8.664062 -1.375 8.03125 -0.75 C 7.40625 -0.132812 6.566406 0.171875 5.515625 0.171875 Z M 5.515625 0.171875 "/></g></g></g><g clip-path="url(#2d2662a92c)"><path fill="#107c42" d="M 229.347656 0 L 76.484375 0 C 62.378906 0 51.226562 11.164062 51.226562 24.957031 L 51.226562 350.042969 C 51.226562 363.835938 62.378906 375 76.15625 375 L 298.234375 375 C 312.011719 375 323.164062 363.835938 323.164062 350.042969 L 323.164062 94.570312 Z M 229.347656 0 " fill-opacity="1" fill-rule="nonzero"/></g><g clip-path="url(#e30d75b7c7)"><path fill="#221f1f" d="M 229.347656 0 L 229.347656 94.570312 L 323.492188 94.570312 " fill-opacity="0.35" fill-rule="nonzero"/></g><path fill="#ffffff" d="M 110.597656 144.8125 L 263.792969 144.8125 L 263.792969 166.8125 L 110.597656 166.8125 Z M 110.597656 144.8125 " fill-opacity="1" fill-rule="nonzero"/><path fill="#ffffff" d="M 110.597656 195.710938 L 263.792969 195.710938 L 263.792969 217.710938 L 110.597656 217.710938 Z M 110.597656 195.710938 " fill-opacity="1" fill-rule="nonzero"/><path fill="#ffffff" d="M 110.597656 246.277344 L 220.492188 246.277344 L 220.492188 268.28125 L 110.597656 268.28125 Z M 110.597656 246.277344 " fill-opacity="1" fill-rule="nonzero"/><g clip-path="url(#2d3fecb16b)"><path fill="#107c42" d="M 50.898438 137.585938 L 323.820312 137.585938 L 323.820312 281.085938 L 50.898438 281.085938 Z M 50.898438 137.585938 " fill-opacity="1" fill-rule="nonzero"/></g><path fill="#ffffff" d="M 147.011719 242.996094 L 134.21875 223.949219 L 123.066406 242.996094 L 105.679688 242.996094 L 125.6875 211.144531 L 105.351562 180.277344 L 123.066406 180.277344 L 135.53125 199.320312 L 146.683594 180.277344 L 164.070312 180.277344 L 144.386719 211.800781 L 165.054688 242.667969 L 147.011719 242.667969 Z M 147.011719 242.996094 " fill-opacity="1" fill-rule="nonzero"/><path fill="#ffffff" d="M 187.6875 231.171875 L 207.699219 231.171875 L 207.699219 242.996094 L 172.597656 242.996094 L 172.597656 180.605469 L 187.6875 180.605469 Z M 187.6875 231.171875 " fill-opacity="1" fill-rule="nonzero"/><path fill="#ffffff" d="M 225.082031 241.351562 C 221.476562 239.710938 218.523438 237.742188 216.554688 234.785156 C 214.257812 231.832031 213.273438 228.21875 213.273438 224.277344 L 229.347656 224.277344 C 229.675781 226.578125 230.332031 228.21875 231.644531 229.53125 C 232.957031 230.84375 234.925781 231.5 236.890625 231.5 C 239.1875 231.5 240.828125 230.84375 242.140625 229.859375 C 243.453125 228.875 244.109375 227.234375 244.109375 225.589844 C 244.109375 223.949219 243.453125 222.636719 242.46875 221.652344 C 241.484375 220.664062 240.171875 219.679688 238.53125 219.023438 C 236.890625 218.367188 234.925781 217.710938 231.972656 216.726562 C 228.035156 215.410156 224.753906 214.097656 222.132812 213.113281 C 219.507812 211.800781 217.539062 210.15625 215.570312 207.53125 C 213.601562 204.902344 212.945312 201.949219 212.945312 198.007812 C 212.945312 192.097656 214.914062 187.5 219.179688 184.214844 C 223.441406 180.933594 229.019531 179.289062 235.582031 179.289062 C 242.46875 179.289062 248.046875 180.933594 252.308594 184.214844 C 256.574219 187.5 258.871094 192.097656 259.199219 198.007812 L 242.796875 198.007812 C 242.796875 196.039062 241.8125 194.394531 240.5 193.082031 C 239.1875 191.769531 237.546875 191.441406 235.253906 191.441406 C 233.285156 191.441406 231.972656 191.769531 230.660156 192.753906 C 229.675781 193.738281 229.019531 195.050781 229.019531 197.023438 C 229.019531 198.992188 230.003906 200.636719 231.972656 201.621094 C 233.941406 202.605469 236.890625 203.917969 240.828125 205.230469 C 244.765625 206.546875 248.046875 207.859375 250.667969 209.171875 C 253.292969 210.484375 255.261719 212.128906 257.230469 214.753906 C 259.199219 217.054688 259.855469 220.335938 259.855469 223.949219 C 259.855469 227.5625 258.871094 230.84375 257.230469 233.800781 C 255.589844 236.753906 252.636719 239.054688 249.359375 240.695312 C 246.078125 242.339844 241.8125 243.324219 237.21875 243.324219 C 232.957031 243.652344 228.691406 242.667969 225.082031 241.351562 Z M 225.082031 241.351562 " fill-opacity="1" fill-rule="nonzero"/></svg>