<svg xmlns="http://www.w3.org/2000/svg" xmlns:xlink="http://www.w3.org/1999/xlink" width="500" zoomAndPan="magnify" viewBox="0 0 375 374.999991" height="500" preserveAspectRatio="xMidYMid meet" version="1.0"><defs><g/></defs><path fill="#4184a9" d="M 0 32.328125 L 0 239.222656 C 0 257.078125 49.199219 271.550781 109.914062 271.550781 C 121.355469 271.550781 132.417969 271.019531 142.820312 270.136719 L 219.828125 148.910156 L 219.828125 32.328125 L 0 32.328125 " fill-opacity="1" fill-rule="nonzero"/><path fill="#35718a" d="M 219.828125 32.328125 C 219.828125 50.183594 170.628906 64.65625 109.914062 64.65625 C 49.222656 64.65625 0 50.183594 0 32.328125 C 0 14.472656 49.222656 0 109.914062 0 C 170.628906 0 219.828125 14.472656 219.828125 32.328125 " fill-opacity="1" fill-rule="nonzero"/><path fill="#6de08e" d="M 0 109.914062 C 0 127.769531 49.222656 142.242188 109.914062 142.242188 C 170.628906 142.242188 219.828125 127.769531 219.828125 109.914062 L 219.828125 84.050781 C 219.828125 101.90625 170.628906 116.378906 109.914062 116.378906 C 49.222656 116.378906 0 101.90625 0 84.050781 L 0 109.914062 " fill-opacity="1" fill-rule="nonzero"/><path fill="#6de08e" d="M 149.691406 217.679688 C 137.316406 219.042969 123.929688 219.828125 109.914062 219.828125 C 49.199219 219.828125 0 205.355469 0 187.5 L 0 161.636719 C 0 179.492188 49.199219 193.964844 109.914062 193.964844 C 129.941406 193.964844 148.78125 192.425781 164.945312 189.648438 L 149.691406 217.679688 " fill-opacity="1" fill-rule="nonzero"/><path fill="#35718a" d="M 375 258.621094 C 375 322.898438 322.898438 375 258.621094 375 C 194.34375 375 142.242188 322.898438 142.242188 258.621094 C 142.242188 194.34375 194.34375 142.242188 258.621094 142.242188 C 322.898438 142.242188 375 194.34375 375 258.621094 " fill-opacity="1" fill-rule="nonzero"/><path fill="#ffffff" d="M 200.429688 226.292969 C 207.554688 226.292969 213.363281 232.101562 213.363281 239.222656 C 213.363281 242.785156 216.265625 245.691406 219.828125 245.691406 C 223.386719 245.691406 226.292969 242.785156 226.292969 239.222656 C 226.292969 224.953125 214.699219 213.363281 200.429688 213.363281 C 186.160156 213.363281 174.570312 224.953125 174.570312 239.222656 C 174.570312 253.492188 186.160156 265.085938 200.429688 265.085938 C 207.554688 265.085938 213.363281 270.894531 213.363281 278.015625 C 213.363281 285.140625 207.554688 290.949219 200.429688 290.949219 C 193.308594 290.949219 187.5 285.140625 187.5 278.015625 C 187.5 274.457031 184.59375 271.550781 181.035156 271.550781 C 177.472656 271.550781 174.570312 274.457031 174.570312 278.015625 C 174.570312 292.285156 186.160156 303.878906 200.429688 303.878906 C 214.699219 303.878906 226.292969 292.285156 226.292969 278.015625 C 226.292969 263.746094 214.699219 252.15625 200.429688 252.15625 C 193.308594 252.15625 187.5 246.347656 187.5 239.222656 C 187.5 232.101562 193.308594 226.292969 200.429688 226.292969 " fill-opacity="1" fill-rule="nonzero"/><path fill="#ffffff" d="M 276.929688 274.429688 C 274.960938 271.449219 270.945312 270.667969 267.964844 272.636719 C 264.984375 274.609375 264.175781 278.625 266.171875 281.605469 L 271.300781 289.28125 C 269.429688 290.316406 267.332031 290.949219 265.085938 290.949219 C 257.964844 290.949219 252.15625 285.140625 252.15625 278.015625 L 252.15625 239.222656 C 252.15625 232.101562 257.964844 226.292969 265.085938 226.292969 C 272.207031 226.292969 278.015625 232.101562 278.015625 239.222656 L 278.015625 276.074219 Z M 265.085938 213.363281 C 250.816406 213.363281 239.222656 224.953125 239.222656 239.222656 L 239.222656 278.015625 C 239.222656 292.285156 250.816406 303.878906 265.085938 303.878906 C 270.011719 303.878906 274.558594 302.441406 278.472656 300.039062 L 279.101562 301 C 280.339844 302.867188 282.386719 303.878906 284.484375 303.878906 C 285.71875 303.878906 286.957031 303.527344 288.070312 302.792969 C 291.050781 300.824219 291.859375 296.808594 289.863281 293.828125 L 287.613281 290.46875 C 289.660156 286.753906 290.949219 282.5625 290.949219 278.015625 L 290.949219 239.222656 C 290.949219 224.953125 279.355469 213.363281 265.085938 213.363281 " fill-opacity="1" fill-rule="nonzero"/><path fill="#ffffff" d="M 336.207031 290.949219 L 316.808594 290.949219 L 316.808594 219.828125 C 316.808594 216.265625 313.90625 213.363281 310.34375 213.363281 C 306.785156 213.363281 303.878906 216.265625 303.878906 219.828125 L 303.878906 297.414062 C 303.878906 300.976562 306.785156 303.878906 310.34375 303.878906 L 336.207031 303.878906 C 339.769531 303.878906 342.671875 300.976562 342.671875 297.414062 C 342.671875 293.851562 339.769531 290.949219 336.207031 290.949219 " fill-opacity="1" fill-rule="nonzero"/><g fill="#000000" fill-opacity="1"><g transform="translate(170.884594, 24.920675)"><g><path d="M 0.28125 0.015625 C 0.238281 0.015625 0.203125 0.0078125 0.171875 0 C 0.148438 -0.0195312 0.132812 -0.0390625 0.125 -0.0625 C 0.113281 -0.09375 0.109375 -0.125 0.109375 -0.15625 C 0.109375 -0.1875 0.113281 -0.210938 0.125 -0.234375 C 0.132812 -0.265625 0.148438 -0.285156 0.171875 -0.296875 C 0.203125 -0.304688 0.238281 -0.3125 0.28125 -0.3125 C 0.3125 -0.3125 0.335938 -0.304688 0.359375 -0.296875 C 0.390625 -0.285156 0.410156 -0.265625 0.421875 -0.234375 C 0.441406 -0.210938 0.453125 -0.1875 0.453125 -0.15625 C 0.453125 -0.101562 0.4375 -0.0625 0.40625 -0.03125 C 0.375 0 0.332031 0.015625 0.28125 0.015625 Z M 0.28125 0.015625 "/></g></g></g></svg>