<svg xmlns="http://www.w3.org/2000/svg" xmlns:xlink="http://www.w3.org/1999/xlink" width="500" zoomAndPan="magnify" viewBox="0 0 375 374.999991" height="500" preserveAspectRatio="xMidYMid meet" version="1.0"><defs><g/><clipPath id="0b9ca0ea2f"><path d="M 151 7.5 L 225 7.5 L 225 87 L 151 87 Z M 151 7.5 " clip-rule="nonzero"/></clipPath></defs><g fill="#000000" fill-opacity="1"><g transform="translate(170.884594, 24.920675)"><g><path d="M 0.28125 0.015625 C 0.238281 0.015625 0.203125 0.0078125 0.171875 0 C 0.148438 -0.0195312 0.132812 -0.0390625 0.125 -0.0625 C 0.113281 -0.09375 0.109375 -0.125 0.109375 -0.15625 C 0.109375 -0.1875 0.113281 -0.210938 0.125 -0.234375 C 0.132812 -0.265625 0.148438 -0.285156 0.171875 -0.296875 C 0.203125 -0.304688 0.238281 -0.3125 0.28125 -0.3125 C 0.3125 -0.3125 0.335938 -0.304688 0.359375 -0.296875 C 0.390625 -0.285156 0.410156 -0.265625 0.421875 -0.234375 C 0.441406 -0.210938 0.453125 -0.1875 0.453125 -0.15625 C 0.453125 -0.101562 0.4375 -0.0625 0.40625 -0.03125 C 0.375 0 0.332031 0.015625 0.28125 0.015625 Z M 0.28125 0.015625 "/></g></g></g><g clip-path="url(#0b9ca0ea2f)"><path fill="#7099a6" d="M 181.539062 24.539062 L 181.539062 41.59375 L 151.039062 41.59375 L 151.039062 52.683594 L 181.539062 52.683594 L 181.539062 86.648438 L 193.460938 86.648438 L 193.460938 52.683594 L 224.722656 52.683594 L 224.722656 41.59375 L 193.460938 41.59375 L 193.460938 7.558594 L 181.539062 7.558594 Z M 181.539062 24.539062 " fill-opacity="1" fill-rule="nonzero"/></g><path fill="#eb912c" d="M 81.863281 67.792969 L 81.863281 92.539062 L 35.699219 92.539062 L 35.699219 108.066406 L 81.863281 108.066406 L 81.863281 158.320312 L 98.984375 158.320312 L 98.984375 108.066406 L 145.839844 108.066406 L 145.839844 92.539062 L 98.984375 92.539062 L 98.984375 43.046875 L 81.863281 43.046875 Z M 81.863281 67.792969 " fill-opacity="1" fill-rule="nonzero"/><path fill="#59879b" d="M 275.320312 67.792969 L 275.320312 92.539062 L 229.15625 92.539062 L 229.15625 108.828125 L 275.320312 108.828125 L 275.320312 158.320312 L 293.136719 158.320312 L 293.136719 108.828125 L 339.300781 108.828125 L 339.300781 92.539062 L 293.136719 92.539062 L 293.136719 43.046875 L 275.320312 43.046875 Z M 275.320312 67.792969 " fill-opacity="1" fill-rule="nonzero"/><path fill="#e8762c" d="M 177.101562 152.082031 L 177.101562 179.808594 L 125.738281 179.808594 L 125.738281 200.464844 L 177.101562 200.464844 L 177.101562 255.914062 L 197.894531 255.914062 L 197.894531 200.464844 L 249.257812 200.464844 L 249.257812 179.808594 L 197.894531 179.808594 L 197.894531 124.355469 L 177.101562 124.355469 Z M 177.101562 152.082031 " fill-opacity="1" fill-rule="nonzero"/><path fill="#5b6591" d="M 328.140625 166.082031 L 328.140625 183.480469 L 296.878906 183.480469 L 296.878906 197.550781 L 328.140625 197.550781 L 328.140625 232.28125 L 343.734375 232.28125 L 343.734375 197.550781 L 374.996094 197.550781 L 374.996094 183.480469 L 343.734375 183.480469 L 343.734375 148.753906 L 328.140625 148.753906 Z M 328.140625 166.082031 " fill-opacity="1" fill-rule="nonzero"/><path fill="#7099a6" d="M 30.5 167.609375 L 30.5 184.242188 L 0 184.242188 L 0 196.027344 L 30.5 196.027344 L 30.5 229.296875 L 42.421875 229.296875 L 42.421875 196.027344 L 73.683594 194.917969 L 73.683594 184.242188 L 42.421875 184.242188 L 42.421875 150.972656 L 30.5 150.972656 Z M 30.5 167.609375 " fill-opacity="1" fill-rule="nonzero"/><path fill="#c72035" d="M 81.863281 245.933594 L 81.863281 270.679688 L 35.699219 270.679688 L 35.699219 286.96875 L 81.863281 286.96875 L 81.863281 336.460938 L 99.675781 336.460938 L 99.675781 286.96875 L 145.839844 286.96875 L 145.839844 270.679688 L 99.675781 270.679688 L 99.675781 221.1875 L 81.863281 221.1875 Z M 81.863281 245.933594 " fill-opacity="1" fill-rule="nonzero"/><path fill="#1f447e" d="M 275.320312 245.933594 L 275.320312 270.679688 L 229.15625 270.679688 L 229.15625 286.207031 L 275.320312 286.207031 L 275.320312 336.460938 L 293.136719 336.460938 L 293.136719 286.207031 L 339.300781 286.207031 L 339.300781 270.679688 L 293.136719 270.679688 L 293.136719 221.1875 L 275.320312 221.1875 Z M 275.320312 245.933594 " fill-opacity="1" fill-rule="nonzero"/><path fill="#5b6591" d="M 180.082031 308.804688 L 180.082031 326.132812 L 148.820312 326.132812 L 148.820312 340.203125 L 180.082031 340.203125 L 180.082031 374.929688 L 195.675781 374.929688 L 195.675781 340.203125 L 226.9375 340.203125 L 226.9375 326.132812 L 195.675781 326.132812 L 195.675781 291.40625 L 180.082031 291.40625 Z M 180.082031 308.804688 " fill-opacity="1" fill-rule="nonzero"/></svg>